# xmcd CD database file
#
# Track frame offsets:
#	150
#	787
#	20632
#	45430
#	67197
#	94275
#	121355
#
# Disc length: 1629 seconds
#
# Revision: 0
# Processed by: cddbd v1.4PL0 Copyright (c) Steve Scherf et al.
# Submitted via: CDex 1.50
#
DISCID=51065b07
DTITLE=David Badie - Smooth Jazz from the French Quarter to your Home
DYEAR=2003
DGENRE=Jazz
TTITLE0=Today's Vision commercial
TTITLE1=Secret admirer
TTITLE2=When we say goodbye
TTITLE3=Pleasure
TTITLE4=Every waking moment
TTITLE5=The court jazzster
TTITLE6=Today's Vision commercial (end)
EXTD=YEAR: 2003
EXTT0=
EXTT1=
EXTT2=
EXTT3=
EXTT4=
EXTT5=
EXTT6=
PLAYORDER=
